<svg xmlns="http://www.w3.org/2000/svg" width="33" height="15" viewBox="0 0 33 15" fill="none">
    <path fill-rule="evenodd" clip-rule="evenodd" d="M6.50624 2.04236C6.12853 2.5081 5.52419 2.87545 4.91985 2.82298C4.84431 2.19323 5.14019 1.52413 5.48642 1.11086C5.86413 0.631998 6.52513 0.290888 7.06022 0.264648C7.12317 0.92063 6.87766 1.56349 6.50624 2.04236ZM7.05393 2.94759C6.52152 2.91566 6.03572 3.11444 5.64332 3.275C5.39081 3.37832 5.17697 3.46582 5.01429 3.46582C4.83173 3.46582 4.60907 3.37364 4.35907 3.27015C4.03149 3.13454 3.65697 2.97951 3.26423 2.98695C2.36402 3.00007 1.52676 3.53141 1.06721 4.37763C0.122928 6.07006 0.821694 8.5759 1.7345 9.95346C2.18146 10.6357 2.71655 11.3835 3.42161 11.3573C3.73179 11.3451 3.95492 11.2464 4.18584 11.1443C4.45169 11.0268 4.72786 10.9046 5.15908 10.9046C5.57535 10.9046 5.83945 11.0236 6.09296 11.1377C6.33401 11.2463 6.5655 11.3505 6.90914 11.3441C7.63939 11.331 8.09894 10.6619 8.54589 9.9797C9.02823 9.2475 9.2402 8.5329 9.27236 8.42445L9.27614 8.41191C9.27536 8.41111 9.26941 8.40826 9.25889 8.40325C9.09766 8.32633 7.86524 7.73842 7.85342 6.1619C7.84156 4.83863 8.83094 4.16819 8.98668 4.06265C8.99616 4.05623 9.00255 4.0519 9.00544 4.04964C8.37592 3.07879 7.39387 2.97383 7.05393 2.94759ZM12.109 11.272V1.04524H15.7917C17.6929 1.04524 19.0211 2.40968 19.0211 4.40386C19.0211 6.39805 17.6677 7.7756 15.7413 7.7756H13.6325V11.272H12.109ZM13.6324 2.38347H15.3888C16.7108 2.38347 17.4662 3.11817 17.4662 4.41045C17.4662 5.70274 16.7108 6.44399 15.3825 6.44399H13.6324V2.38347ZM24.0511 10.0454C23.6482 10.8457 22.7606 11.3508 21.8037 11.3508C20.3873 11.3508 19.3989 10.4717 19.3989 9.14666C19.3989 7.8347 20.3558 7.08032 22.1248 6.96881L24.0259 6.85073V6.28659C24.0259 5.45349 23.5034 5.00087 22.5717 5.00087C21.8037 5.00087 21.2434 5.41413 21.1301 6.04388H19.7578C19.8018 4.71879 20.9979 3.7545 22.6158 3.7545C24.3595 3.7545 25.4927 4.70568 25.4927 6.18163V11.272H24.0826V10.0454H24.0511ZM22.2128 10.1372C21.4007 10.1372 20.8845 9.73044 20.8845 9.10726C20.8845 8.4644 21.3818 8.09049 22.3324 8.03145L24.0258 7.91994V8.4972C24.0258 9.45493 23.2452 10.1372 22.2128 10.1372ZM30.17 11.6722C29.5594 13.463 28.8606 14.0534 27.375 14.0534C27.2616 14.0534 26.8839 14.0403 26.7958 14.014V12.7874C26.8902 12.8005 27.1231 12.8136 27.2428 12.8136C27.9163 12.8136 28.2941 12.5184 28.527 11.7509L28.6655 11.2983L26.0844 3.8529H27.6771L29.4713 9.89448H29.5027L31.2969 3.8529H32.8455L30.17 11.6722Z" fill="white"/>
</svg>