<svg xmlns="http://www.w3.org/2000/svg" width="32" height="33" viewBox="0 0 32 33" fill="none">
    <g clip-path="url(#clip0_1_6200)">
        <path d="M31.9763 1.3712C31.9132 1.17858 31.7373 1.04539 31.5348 1.03695C30.5152 0.994517 27.7284 1.00183 23.8827 1.9852C20.303 2.90064 16.9438 4.40533 14.168 6.3367C13.9477 6.49002 13.8935 6.79283 14.0467 7.01314C14.1998 7.23345 14.5027 7.28777 14.7231 7.13452C17.4044 5.2687 20.6551 3.81377 24.1234 2.92683C25.4194 2.59545 26.7592 2.34389 28.0295 2.18627C27.5087 2.4112 26.9505 2.67439 26.3695 2.98289C22.4406 5.06858 20.2455 7.73552 19.0325 9.8792C18.8731 9.16395 18.8294 8.34189 18.8291 7.97552C18.829 7.7072 18.6115 7.48977 18.3432 7.48977C18.0748 7.48977 17.8572 7.70733 17.8572 7.9757C17.8572 8.19077 17.8744 9.98302 18.4172 11.0878C17.6691 12.6852 16.9693 14.2821 16.2923 15.8286C16.0047 16.4855 15.7216 17.132 15.4409 17.7649C15.0031 16.9405 14.4261 15.4479 14.5843 13.4956C14.606 13.2282 14.4068 12.9937 14.1392 12.972C13.8725 12.9508 13.6373 13.1496 13.6156 13.4171C13.3882 16.2219 14.5035 18.1801 14.956 18.848C14.1078 20.7223 13.2715 22.4484 12.3907 23.9217C11.9372 22.895 11.2268 20.9387 11.2268 18.7604C11.2268 18.492 11.0092 18.2745 10.7408 18.2745C10.4725 18.2745 10.2549 18.492 10.2549 18.7604C10.2549 21.6498 11.3725 24.1069 11.7747 24.8975C10.8124 26.3353 9.78484 27.4596 8.62416 28.1438C5.08828 24.3037 4.74341 17.0988 10.9206 10.4274C11.6228 9.66902 12.3934 8.94508 13.2112 8.27577C13.4189 8.10577 13.4494 7.79964 13.2794 7.59195C13.1094 7.38427 12.8032 7.35377 12.5956 7.5237C11.7434 8.22133 10.9399 8.97614 10.2075 9.76708C3.69153 16.8043 4.05866 24.4746 7.79484 28.6765C4.54122 30.8661 0.51547 31.0029 0.473345 31.0041C0.20522 31.0113 -0.0063429 31.2344 0.000657097 31.5026C0.0075946 31.7665 0.22372 31.9758 0.48622 31.9758C0.490532 31.9758 0.494907 31.9757 0.49922 31.9756C0.68572 31.9707 4.98003 31.83 8.49772 29.3732C9.56359 30.2429 11.2355 30.772 13.2626 30.772C15.5575 30.772 18.3077 30.0937 21.1485 28.4638C23.7803 26.9538 25.6671 24.6438 26.7566 21.5981C27.6896 18.9901 28.0042 15.8521 27.6665 12.5234C27.0644 6.58933 29.3061 3.91164 31.8182 1.90202C31.9763 1.77533 32.0394 1.56383 31.9763 1.3712ZM27.6837 5.34633C26.7278 7.34727 26.4059 9.72702 26.6995 12.6214C27.0227 15.8071 26.726 18.798 25.8414 21.2707C24.832 24.0926 23.0903 26.229 20.6648 27.6208C17.604 29.377 15.0348 29.7749 13.4185 29.7995C11.766 29.8254 10.337 29.4726 9.37816 28.8195C10.1762 28.3018 10.9089 27.6075 11.5974 26.7693C11.6353 26.7696 11.6762 26.7698 11.7219 26.7698C12.1991 26.7698 13.0882 26.7493 14.1372 26.6268C16.2358 26.3815 17.8903 25.8636 19.0546 25.0875C19.2779 24.9386 19.3382 24.6369 19.1893 24.4136C19.0405 24.1904 18.7388 24.1301 18.5155 24.2789C16.7219 25.4746 13.8328 25.7343 12.3417 25.7856C13.287 24.4374 14.1577 22.8185 15.0163 21.0255C15.8614 21.0234 18.1045 20.8406 20.2372 19.1404C20.447 18.9731 20.4815 18.6673 20.3142 18.4575C20.1469 18.2476 19.8412 18.2132 19.6313 18.3805C18.0651 19.6291 16.4075 19.9518 15.4846 20.0291C16.0449 18.8166 16.605 17.5374 17.1825 16.2185C17.4805 15.5377 17.7832 14.8468 18.092 14.1512C18.1253 14.152 18.1605 14.1525 18.1975 14.1525C18.93 14.1525 20.3887 13.9738 21.9917 12.7861C22.2073 12.6264 22.2526 12.322 22.0928 12.1064C21.933 11.8908 21.6287 11.8455 21.413 12.0053C20.424 12.738 19.5138 13.0133 18.9243 13.1152C18.7814 13.14 18.6506 13.1556 18.5323 13.1656C18.8156 12.5371 19.1047 11.9065 19.4015 11.2768C21.2118 7.43527 24.4235 5.12058 26.799 3.85527C27.8288 3.30677 28.7953 2.90214 29.5884 2.61302C28.8916 3.34727 28.2116 4.24133 27.6837 5.34633Z" fill="#00B307"/>
    </g>
    <defs>
        <clipPath id="clip0_1_6200">
            <rect width="32" height="32" fill="white" transform="translate(0 0.5)"/>
        </clipPath>
    </defs>
</svg>