<svg xmlns="http://www.w3.org/2000/svg" width="32" height="14" viewBox="0 0 32 14" fill="none">
    <path d="M5.13333 7.00153C17.2644 -5.59609 31.2617 7.00153 31.2617 7.00153C31.2617 7.00153 17.2644 19.5991 5.13333 7.00153Z" fill="#36C63F"/>
    <path d="M22.8938 12.196C27.954 10.6073 31.4454 7.49919 31.5916 7.36763L32 7L31.5916 6.63237C31.4454 6.50081 27.954 3.39267 22.8938 1.80398C19.902 0.864727 16.9897 0.661476 14.2377 1.19998C10.858 1.86123 7.72564 3.64636 4.92432 6.50537L-2.44735e-07 6.50537L-2.87974e-07 7.49456L4.92432 7.49456C7.7257 10.3536 10.8579 12.1387 14.2377 12.8C16.9897 13.3384 19.9021 13.1352 22.8938 12.196ZM14.4097 11.8258C11.5163 11.2559 8.80595 9.80051 6.33845 7.49456L13.3259 7.49456L15.9805 10.1492L16.6798 9.44976L14.7247 7.49463L20.5294 7.49463L20.5294 6.50544L17.0575 6.50544L19.0127 4.55024L18.3133 3.85086L15.6587 6.50544L10.992 6.50544L12.4806 5.01681L11.7812 4.31743L9.59314 6.5055L6.33839 6.5055C8.80595 4.19955 11.5163 2.74411 14.4097 2.17423C16.9942 1.66523 19.7388 1.85504 22.5674 2.73836C26.4272 3.94374 29.4068 6.13294 30.4887 7.00006C29.4067 7.86726 26.4272 10.0563 22.5674 11.2618C19.7389 12.145 16.9942 12.3348 14.4097 11.8258Z" fill="#009F06"/>
    <path opacity="0.3" d="M22.3945 7.49326L22.3945 6.50415L21.4615 6.50415L21.4615 7.49326L22.3945 7.49326Z" fill="white"/>
    <path opacity="0.2" d="M24.2617 7.49326L24.2617 6.50415L23.3287 6.50415L23.3287 7.49326L24.2617 7.49326Z" fill="#1A1A1A"/>
</svg>