<svg xmlns="http://www.w3.org/2000/svg" width="31" height="19" viewBox="0 0 31 19" fill="none">
    <path fill-rule="evenodd" clip-rule="evenodd" d="M15.7369 16.2741C14.1698 17.5951 12.1369 18.3925 9.9156 18.3925C4.95916 18.3925 0.941162 14.4223 0.941162 9.52487C0.941162 4.62741 4.95916 0.657227 9.9156 0.657227C12.1369 0.657227 14.1698 1.45467 15.7369 2.77564C17.3041 1.45468 19.3369 0.65725 21.5582 0.65725C26.5147 0.65725 30.5327 4.62743 30.5327 9.5249C30.5327 14.4224 26.5147 18.3925 21.5582 18.3925C19.3369 18.3925 17.304 17.5951 15.7369 16.2741Z" fill="#ED0006"/>
    <path fill-rule="evenodd" clip-rule="evenodd" d="M15.7369 16.2742C17.6665 14.6477 18.8901 12.2275 18.8901 9.52487C18.8901 6.82227 17.6665 4.40205 15.7369 2.77555C17.304 1.45464 19.3368 0.657227 21.5581 0.657227C26.5145 0.657227 30.5325 4.62741 30.5325 9.52487C30.5325 14.4223 26.5145 18.3925 21.5581 18.3925C19.3368 18.3925 17.304 17.5951 15.7369 16.2742Z" fill="#F9A000"/>
    <path fill-rule="evenodd" clip-rule="evenodd" d="M15.7369 16.2741C17.6665 14.6476 18.8901 12.2275 18.8901 9.52488C18.8901 6.82232 17.6665 4.40212 15.7369 2.77563C13.8073 4.40212 12.5838 6.82232 12.5838 9.52488C12.5838 12.2275 13.8073 14.6476 15.7369 16.2741Z" fill="#FF5E00"/>
</svg>