<svg xmlns="http://www.w3.org/2000/svg" width="18" height="19" viewBox="0 0 18 19" fill="none">
    <path d="M9.30996 13.9111L12.8565 16.1577C13.3099 16.4446 13.8724 16.0177 13.738 15.4884L12.7136 11.4581C12.6847 11.3458 12.6881 11.2276 12.7233 11.1172C12.7585 11.0067 12.8242 10.9085 12.9128 10.8337L16.0931 8.18711C16.5105 7.83949 16.2956 7.14593 15.7585 7.11105L11.6055 6.84105C11.4937 6.83312 11.3865 6.79359 11.2962 6.72707C11.206 6.66055 11.1365 6.56977 11.0959 6.4653L9.54677 2.56493C9.50459 2.45408 9.42971 2.35867 9.33207 2.29136C9.23443 2.22404 9.11863 2.18799 9.00002 2.18799C8.88142 2.18799 8.76562 2.22404 8.66798 2.29136C8.57033 2.35867 8.49546 2.45408 8.45327 2.56493L6.90415 6.4653C6.8636 6.56988 6.79416 6.66077 6.70394 6.7274C6.61371 6.79402 6.5064 6.83364 6.39452 6.84161L2.24159 7.11161C1.70496 7.14593 1.48896 7.83949 1.9069 8.18711L5.08727 10.8342C5.17576 10.909 5.24138 11.0072 5.2766 11.1175C5.31182 11.2278 5.31522 11.3459 5.2864 11.4581L4.3369 15.1959C4.17546 15.8309 4.85102 16.3434 5.3944 15.9986L8.69065 13.9111C8.78329 13.8522 8.8908 13.8209 9.00059 13.8209C9.11037 13.8209 9.21788 13.8522 9.31052 13.9111H9.30996Z" fill="#CCCCCC"/>
</svg>