<svg xmlns="http://www.w3.org/2000/svg" width="32" height="12" viewBox="0 0 32 12" fill="none">
    <path fill-rule="evenodd" clip-rule="evenodd" d="M8.22833 10.9887H5.5022L3.45794 2.96033C3.36091 2.59102 3.15489 2.26454 2.85184 2.11066C2.09554 1.72396 1.26215 1.41621 0.352997 1.26099V0.951899H4.74457C5.35068 0.951899 5.80525 1.41621 5.88101 1.95544L6.94169 7.74657L9.66649 0.951899H12.3169L8.22833 10.9887ZM13.8322 10.9887H11.2576L13.3776 0.951899H15.9522L13.8322 10.9887ZM19.283 3.73243C19.3587 3.19186 19.8133 2.88276 20.3436 2.88276C21.177 2.80516 22.0849 2.96037 22.8425 3.34573L23.2971 1.18477C22.5394 0.875674 21.706 0.720459 20.9497 0.720459C18.4509 0.720459 16.6326 2.1107 16.6326 4.04019C16.6326 5.50804 17.9206 6.27876 18.8297 6.74307C19.8133 7.20604 20.1921 7.51513 20.1164 7.9781C20.1164 8.67255 19.3587 8.98164 18.6024 8.98164C17.6933 8.98164 16.7841 8.75016 15.9521 8.36346L15.4975 10.5258C16.4066 10.9111 17.3902 11.0663 18.2994 11.0663C21.1013 11.1426 22.8425 9.7537 22.8425 7.66901C22.8425 5.04373 19.283 4.88985 19.283 3.73243ZM31.8529 10.9887L29.8087 0.951899H27.6129C27.1583 0.951899 26.7037 1.26099 26.5522 1.72396L22.7667 10.9887H25.4171L25.9461 9.52217H29.2026L29.5056 10.9887H31.8529ZM27.9918 3.65486L28.7481 7.43756H26.6281L27.9918 3.65486Z" fill="white"/>
</svg>